<?xml version="1.0" encoding="utf-8"?>
<svg width="46px" height="46px" viewBox="0 0 46 46" version="1.1" xmlns:xlink="http://www.w3.org/1999/xlink" xmlns="http://www.w3.org/2000/svg">
  <g id="node_pivot_icon">
    <path d="M7 23C7 14.1634 14.1634 7 23 7C31.8366 7 39 14.1634 39 23C39 31.8366 31.8366 39 23 39C14.1634 39 7 31.8366 7 23Z" id="Oval" fill="#FFFFFF" fill-rule="evenodd" stroke="none" />
    <path d="M12 19C14.2094 19 16 20.7906 16 23L16 23C16 25.2094 14.2094 27 12 27L4 27C1.79056 27 0 25.2094 0 23L0 23C0 20.7906 1.79056 19 4 19L12 19Z" id="Rectangle" fill="#FF8484" stroke="none" />
    <path d="M15 8L15 8Q15 7.80349 15.0193 7.60793Q15.0385 7.41237 15.0769 7.21964Q15.1152 7.02691 15.1722 6.83886Q15.2293 6.65082 15.3045 6.46927Q15.3797 6.28772 15.4723 6.11441Q15.5649 5.94111 15.6741 5.77772Q15.7833 5.61433 15.908 5.46243Q16.0326 5.31052 16.1716 5.17157Q16.3105 5.03262 16.4624 4.90796Q16.6143 4.78329 16.7777 4.67412Q16.9411 4.56495 17.1144 4.47231Q17.2877 4.37968 17.4693 4.30448Q17.6508 4.22928 17.8389 4.17224Q18.0269 4.1152 18.2196 4.07686Q18.4124 4.03852 18.6079 4.01926Q18.8035 4 19 4L27 4Q27.1965 4 27.3921 4.01926Q27.5876 4.03852 27.7804 4.07686Q27.9731 4.1152 28.1611 4.17224Q28.3492 4.22928 28.5307 4.30448Q28.7123 4.37968 28.8856 4.47231Q29.0589 4.56495 29.2223 4.67412Q29.3857 4.78329 29.5376 4.90796Q29.6895 5.03262 29.8284 5.17157Q29.9674 5.31052 30.092 5.46243Q30.2167 5.61433 30.3259 5.77772Q30.435 5.94111 30.5277 6.11441Q30.6203 6.28772 30.6955 6.46927Q30.7707 6.65082 30.8278 6.83886Q30.8848 7.02691 30.9231 7.21964Q30.9615 7.41237 30.9807 7.60793Q31 7.80349 31 8L31 8Q31 8.19651 30.9807 8.39207Q30.9615 8.58763 30.9231 8.78036Q30.8848 8.97309 30.8278 9.16114Q30.7707 9.34918 30.6955 9.53073Q30.6203 9.71228 30.5277 9.88559Q30.435 10.0589 30.3259 10.2223Q30.2167 10.3857 30.092 10.5376Q29.9674 10.6895 29.8284 10.8284Q29.6895 10.9674 29.5376 11.092Q29.3857 11.2167 29.2223 11.3259Q29.0589 11.4351 28.8856 11.5277Q28.7123 11.6203 28.5307 11.6955Q28.3492 11.7707 28.1611 11.8278Q27.9731 11.8848 27.7804 11.9231Q27.5876 11.9615 27.3921 11.9807Q27.1965 12 27 12L19 12Q18.8035 12 18.6079 11.9807Q18.4124 11.9615 18.2196 11.9231Q18.0269 11.8848 17.8389 11.8278Q17.6508 11.7707 17.4693 11.6955Q17.2877 11.6203 17.1144 11.5277Q16.9411 11.4351 16.7777 11.3259Q16.6143 11.2167 16.4624 11.092Q16.3105 10.9674 16.1716 10.8284Q16.0326 10.6895 15.908 10.5376Q15.7833 10.3857 15.6741 10.2223Q15.5649 10.0589 15.4723 9.88559Q15.3797 9.71228 15.3045 9.53073Q15.2293 9.34918 15.1722 9.16114Q15.1152 8.97309 15.0769 8.78036Q15.0385 8.58763 15.0193 8.39207Q15 8.19651 15 8Z" transform="rotate(90 23 8)" id="Rectangle" fill="#FF8484" stroke="none" />
    <path d="M15 38L15 38Q15 37.8035 15.0193 37.6079Q15.0385 37.4124 15.0769 37.2196Q15.1152 37.0269 15.1722 36.8389Q15.2293 36.6508 15.3045 36.4693Q15.3797 36.2877 15.4723 36.1144Q15.5649 35.9411 15.6741 35.7777Q15.7833 35.6143 15.908 35.4624Q16.0326 35.3105 16.1716 35.1716Q16.3105 35.0326 16.4624 34.908Q16.6143 34.7833 16.7777 34.6741Q16.9411 34.5649 17.1144 34.4723Q17.2877 34.3797 17.4693 34.3045Q17.6508 34.2293 17.8389 34.1722Q18.0269 34.1152 18.2196 34.0769Q18.4124 34.0385 18.6079 34.0193Q18.8035 34 19 34L27 34Q27.1965 34 27.3921 34.0193Q27.5876 34.0385 27.7804 34.0769Q27.9731 34.1152 28.1611 34.1722Q28.3492 34.2293 28.5307 34.3045Q28.7123 34.3797 28.8856 34.4723Q29.0589 34.5649 29.2223 34.6741Q29.3857 34.7833 29.5376 34.908Q29.6895 35.0326 29.8284 35.1716Q29.9674 35.3105 30.092 35.4624Q30.2167 35.6143 30.3259 35.7777Q30.435 35.9411 30.5277 36.1144Q30.6203 36.2877 30.6955 36.4693Q30.7707 36.6508 30.8278 36.8389Q30.8848 37.0269 30.9231 37.2196Q30.9615 37.4124 30.9807 37.6079Q31 37.8035 31 38L31 38Q31 38.1965 30.9807 38.3921Q30.9615 38.5876 30.9231 38.7804Q30.8848 38.9731 30.8278 39.1611Q30.7707 39.3492 30.6955 39.5307Q30.6203 39.7123 30.5277 39.8856Q30.435 40.0589 30.3259 40.2223Q30.2167 40.3857 30.092 40.5376Q29.9674 40.6895 29.8284 40.8284Q29.6895 40.9674 29.5376 41.092Q29.3857 41.2167 29.2223 41.3259Q29.0589 41.435 28.8856 41.5277Q28.7123 41.6203 28.5307 41.6955Q28.3492 41.7707 28.1611 41.8278Q27.9731 41.8848 27.7804 41.9231Q27.5876 41.9615 27.3921 41.9807Q27.1965 42 27 42L19 42Q18.8035 42 18.6079 41.9807Q18.4124 41.9615 18.2196 41.9231Q18.0269 41.8848 17.8389 41.8278Q17.6508 41.7707 17.4693 41.6955Q17.2877 41.6203 17.1144 41.5277Q16.9411 41.4351 16.7777 41.3259Q16.6143 41.2167 16.4624 41.092Q16.3105 40.9674 16.1716 40.8284Q16.0326 40.6895 15.908 40.5376Q15.7833 40.3857 15.6741 40.2223Q15.5649 40.0589 15.4723 39.8856Q15.3797 39.7123 15.3045 39.5307Q15.2293 39.3492 15.1722 39.1611Q15.1152 38.9731 15.0769 38.7804Q15.0385 38.5876 15.0193 38.3921Q15 38.1965 15 38Z" transform="rotate(90 23 38)" id="Rectangle" fill="#FF8484" stroke="none" />
    <path d="M42 19C44.2094 19 46 20.7906 46 23L46 23C46 25.2094 44.2094 27 42 27L34 27C31.7906 27 30 25.2094 30 23L30 23C30 20.7906 31.7906 19 34 19L42 19Z" id="Rectangle" fill="#FF8484" stroke="none" />
    <path d="M19 23C19 20.7909 20.7909 19 23 19C25.2091 19 27 20.7909 27 23C27 25.2091 25.2091 27 23 27C20.7909 27 19 25.2091 19 23Z" id="Oval" fill="#FF8484" fill-rule="evenodd" stroke="none" />
  </g>
</svg>